<svg width="343" height="250" viewBox="0 0 343 250" fill="none" xmlns="http://www.w3.org/2000/svg">
<path d="M213.456 205.042L171.5 249.812L129.544 205.042H17.3749C12.833 205.042 8.47723 203.694 5.26567 201.295C2.05411 198.896 0.249878 195.643 0.249878 192.25V13.1667C0.249878 9.77411 2.05411 6.52049 5.26567 4.12159C8.47723 1.72269 12.833 0.375 17.3749 0.375H325.625C330.167 0.375 334.523 1.72269 337.734 4.12159C340.946 6.52049 342.75 9.77411 342.75 13.1667V192.25C342.75 195.643 340.946 198.896 337.734 201.295C334.523 203.694 330.167 205.042 325.625 205.042H213.456Z" fill="white"/>
<path d="M213.456 204.542H213.239L213.091 204.7L171.5 249.081L129.908 204.7L129.76 204.542H129.544H17.3749C12.9259 204.542 8.67875 203.22 5.56489 200.895C2.45376 198.571 0.749878 195.455 0.749878 192.25V13.1667C0.749878 9.96162 2.45376 6.84607 5.56489 4.52218C8.67875 2.19625 12.9259 0.875 17.3749 0.875H325.625C330.074 0.875 334.321 2.19625 337.435 4.52218C340.546 6.84607 342.25 9.96162 342.25 13.1667V192.25C342.25 195.455 340.546 198.571 337.435 200.895C334.321 203.22 330.074 204.542 325.625 204.542H213.456Z" stroke="#5B0E22" stroke-opacity="0.85"/>
</svg>
